<svg xmlns="http://www.w3.org/2000/svg" width="99.082" height="100" viewBox="0 0 99.082 100"><path d="M49.54 0C22.198-.02.027 22.375 0 49.973.027 77.613 22.198 100.007 49.54 100c27.352.007 49.52-22.386 49.542-50.027C99.062 22.375 76.892-.02 49.54 0zm0 88.477c-21.037 0-38.095-17.228-38.077-38.504-.02-21.232 17.04-38.463 38.077-38.452 21.047-.01 38.107 17.222 38.13 38.453-.023 21.276-17.083 38.504-38.13 38.504zM47.553 38.43h-2.525V25.36L21.232 45.036 45.027 64.72V51.65h7.22c9.328 0 19.51 2.747 14.718 16.073-1.03 2.857 2.045 3.533 3.25 1.625 4.8-7.6 9.43-30.92-22.662-30.92z"/></svg>