<svg xmlns="http://www.w3.org/2000/svg" width="33" height="33" viewBox="0 0 33 33"><g><path stroke="#000" stroke-linecap="round" stroke-linejoin="round" stroke-miterlimit="10" fill="none" d="M27.665 26.716l-3.023-3.024M29.663 28.714l-.998-.998"/><path d="M14.667 1.667c3.01 0 5.89 1.045 8.217 2.962l-1.98 1.995-.01-.013-.765.77-.08.08c-1.552-1.163-3.43-1.795-5.383-1.795-4.963 0-9 4.037-9 9s4.037 9 9 9c4.756 0 8.7-3.762 8.98-8.467l3.622-3.653c.263 1.033.396 2.077.396 3.12 0 2.308-.626 4.587-1.81 6.593l-.395.668.55.548 4.944 4.945c.473.474.732 1.1.732 1.77s-.26 1.294-.732 1.767-1.1.732-1.768.732-1.295-.26-1.768-.733l-4.945-4.945-.548-.548-.668.394c-2.006 1.185-4.285 1.81-6.593 1.81-7.168 0-13-5.83-13-13s5.835-13 13.003-13m0-1c-7.732 0-14 6.267-14 14s6.268 14 14 14c2.596 0 5.018-.72 7.102-1.95l4.944 4.945c.684.684 1.58 1.025 2.475 1.025s1.79-.342 2.474-1.025c1.367-1.366 1.367-3.583 0-4.95L26.72 21.77c1.23-2.085 1.948-4.507 1.948-7.103 0-1.765-.35-3.44-.95-4.992l-5.056 5.1c-.058 4.367-3.612 7.893-7.994 7.893-4.418 0-8-3.582-8-8s3.582-8 8-8c2.105 0 4.017.82 5.445 2.15l.727-.73.01.012 2.808-2.83.675-.69C21.818 2.17 18.426.668 14.667.668zM32.188 1h-4.375c-.45 0-.813.363-.813.812v.375c0 .45.363.813.812.813h1.77l-8.055 7.278-.775.77-.013-.02-.71.71-1.645 1.658L12.118 9.8c-.273-.157-.598-.168-.88-.053-.126.09-.252.18-.372.28-.257.303-.32.895-.14 1.255L15.043 20h-3.685c.924.484 2.087.834 3.31.834 1 0 1.943-.334 2.774-.77l-3.424-6.827 4.038 2.297c.39.227.887.148 1.208-.173l1.52-1.37L31 4.68v1.508c0 .45.363.812.812.812h.375c.45 0 .813-.363.813-.812V1.812c0-.45-.363-.812-.812-.812z"/></g></svg>