<?xml version="1.0" standalone="no"?>
<!DOCTYPE svg PUBLIC "-//W3C//DTD SVG 20010904//EN"
 "http://www.w3.org/TR/2001/REC-SVG-20010904/DTD/svg10.dtd">
<svg version="1.0" xmlns="http://www.w3.org/2000/svg"
 width="300.000000pt" height="300.000000pt" viewBox="0 0 300.000000 300.000000"
 preserveAspectRatio="xMidYMid meet">
<metadata>
Created by potrace 1.12, written by Peter Selinger 2001-2015
</metadata>
<g transform="translate(0.000000,300.000000) scale(0.100000,-0.100000)"
fill="#000000" stroke="none">
<path d="M729 2307 c-128 -104 -154 -136 -163 -202 -9 -57 10 -125 72 -260
256 -559 723 -989 1317 -1210 80 -30 110 -36 151 -33 82 7 117 32 225 163 79
97 98 126 99 152 0 31 -13 42 -253 223 -185 138 -261 190 -281 190 -21 0 -51
-23 -130 -100 -90 -88 -107 -100 -137 -100 -19 1 -44 6 -55 13 -33 18 -473
416 -484 438 -28 51 -6 100 85 189 73 71 87 94 74 127 -10 27 -293 438 -327
476 -43 46 -67 38 -193 -66z"/>
</g>
</svg>
