<svg xmlns="http://www.w3.org/2000/svg" xmlns:xlink="http://www.w3.org/1999/xlink" version="1.1" id="Your_Icon" x="0px" y="0px" width="99.082px" height="100px" viewBox="0 0 99.082 100" enable-background="new 0 0 99.082 100" xml:space="preserve">
<path d="M49.54,0C22.198-0.019,0.027,22.375,0,49.973C0.027,77.614,22.198,100.007,49.54,100  c27.352,0.007,49.521-22.386,49.542-50.027C99.062,22.375,76.892-0.019,49.54,0z M49.54,88.477  c-21.037,0-38.095-17.228-38.077-38.504C11.442,28.741,28.503,11.51,49.54,11.521c21.047-0.01,38.107,17.221,38.131,38.452  C87.647,71.249,70.587,88.477,49.54,88.477z"/>
<path d="M47.553,38.429h-2.525v-13.07L21.232,45.037l23.795,19.682v-13.07c0,0,3.372,0,7.219,0c9.329,0,19.512,2.748,14.719,16.074  c-1.03,2.857,2.045,3.533,3.25,1.625C75.014,61.749,79.646,38.429,47.553,38.429z"/>
</svg>