<svg xmlns="http://www.w3.org/2000/svg" xmlns:xlink="http://www.w3.org/1999/xlink" version="1.1" x="0px" y="0px" width="33px" height="33px" viewBox="0 0 33 33" enable-background="new 0 0 33 33" xml:space="preserve">
<g id="Crowd_x5F_Ideas">
</g>
<g id="Killer_x5F_Action">
</g>
<g id="Custom_x5F_Icon">
	<g display="none">
		<g display="inline">
			<path d="M-3-36v0.649c0,0,0.713,0.009,1.19,0.027C18.646-34.55,34.541-17.277,33.769,3.179     c-0.365,9.661-4.464,18.668-11.434,25.364C15.384,35.221,6.229,38.899-3.392,38.899c-0.476,0-0.967-0.01-1.445-0.027     c-9.909-0.375-19.087-4.586-25.829-11.858c-6.742-7.271-10.251-16.734-9.876-26.644c0.365-9.66,4.403-18.667,11.373-25.363     c6.952-6.679,16.312-10.357,25.932-10.358l0.237-1 M-3.473-36.351c-20.39,0.002-37.295,16.135-38.073,36.683     C-42.341,21.373-25.93,39.076-4.89,39.871c0.492,0.019,0.98,0.028,1.469,0.028c20.391,0,37.294-16.134,38.071-36.683     c0.795-21.042-15.616-38.744-36.656-39.54C-2.498-36.341-2.984-36.351-3.473-36.351L-3.473-36.351z"/>
		</g>
	</g>
</g>
<g id="Safe_x5F_Privacy">
</g>
<g id="Responsive">
	<g display="none">
	</g>
</g>
<g id="Real_x5F_Conversion">
</g>
<g id="Fully_x5F_Optimized">
</g>
<g id="Live_x5F_Support">
</g>
<g id="SEO">
	<g display="none">
		<g display="inline">
			<path d="M24.559,21.024l6.73,6.729c0.473,0.473,0.732,1.1,0.732,1.768s-0.26,1.295-0.732,1.768s-1.101,0.732-1.768,0.732     s-1.295-0.26-1.768-0.732l-6.731-6.731c0.012-0.214,0.243-0.837,0.962-1.676C23.005,21.691,24.12,21.048,24.559,21.024      M24.583,20.023c-1.833,0-5.527,3.982-4.323,5.186l6.787,6.787c0.684,0.684,1.579,1.025,2.475,1.025s1.791-0.342,2.475-1.025     c1.367-1.366,1.367-3.583,0-4.949l-6.787-6.787C25.046,20.097,24.832,20.023,24.583,20.023L24.583,20.023z"/>
		</g>
		<g display="inline">
			<path d="M15,2c7.168,0,13,5.832,13,13s-5.832,13-13,13S2,22.168,2,15S7.832,2,15,2 M15,1C7.268,1,1,7.268,1,15s6.268,14,14,14     s14-6.268,14-14S22.732,1,15,1L15,1z"/>
		</g>
		<g display="inline">
			<path d="M15,5.964c4.982,0,9.036,4.054,9.036,9.036S19.982,24.036,15,24.036S5.964,19.982,5.964,15S10.018,5.964,15,5.964      M15,4.964C9.457,4.964,4.964,9.457,4.964,15S9.457,25.036,15,25.036S25.036,20.543,25.036,15S20.543,4.964,15,4.964L15,4.964z"/>
		</g>
	</g>
	
		<line fill="none" stroke="#000000" stroke-linecap="round" stroke-linejoin="round" stroke-miterlimit="10" x1="27.665" y1="26.716" x2="24.642" y2="23.692"/>
	
		<line fill="none" stroke="#000000" stroke-linecap="round" stroke-linejoin="round" stroke-miterlimit="10" x1="29.663" y1="28.714" x2="28.665" y2="27.716"/>
	<path d="M14.667,1.667c3.009,0,5.89,1.045,8.217,2.962l-1.979,1.996l-0.012-0.013l-0.764,0.769l-0.08,0.081   c-1.551-1.163-3.43-1.795-5.382-1.795c-4.963,0-9,4.037-9,9s4.037,9,9,9c4.756,0,8.7-3.762,8.979-8.467l3.623-3.653   c0.264,1.033,0.397,2.077,0.397,3.12c0,2.308-0.626,4.587-1.811,6.593l-0.394,0.668l0.548,0.548l4.945,4.945   c0.473,0.473,0.732,1.1,0.732,1.768s-0.26,1.295-0.732,1.768s-1.101,0.732-1.768,0.732s-1.295-0.26-1.768-0.732l-4.945-4.945   l-0.548-0.548l-0.668,0.394c-2.006,1.185-4.285,1.811-6.593,1.811c-7.168,0-13-5.832-13-13S7.499,1.667,14.667,1.667 M14.667,0.667   c-7.732,0-14,6.268-14,14s6.268,14,14,14c2.596,0,5.018-0.719,7.102-1.949l4.945,4.945c0.684,0.684,1.579,1.025,2.475,1.025   s1.791-0.342,2.475-1.025c1.367-1.366,1.367-3.583,0-4.949l-4.945-4.945c1.23-2.084,1.949-4.506,1.949-7.102   c0-1.765-0.351-3.439-0.949-4.992l-5.057,5.099c-0.058,4.368-3.612,7.894-7.994,7.894c-4.418,0-8-3.582-8-8s3.582-8,8-8   c2.105,0,4.017,0.819,5.445,2.15l0.727-0.731L20.851,8.1l2.807-2.831l0.675-0.688C21.818,2.168,18.426,0.667,14.667,0.667   L14.667,0.667z"/>
	<path d="M32.188,1h-0.375h-4C27.363,1,27,1.363,27,1.812v0.375C27,2.637,27.363,3,27.812,3h1.771l-8.056,7.278l-0.775,0.771   l-0.013-0.021l-0.708,0.711l-1.646,1.657l-6.267-3.597c-0.273-0.156-0.598-0.167-0.879-0.052c-0.127,0.09-0.253,0.181-0.373,0.279   c-0.257,0.304-0.321,0.896-0.139,1.256L15.042,20h-3.685c0.924,0.484,2.087,0.834,3.31,0.834c1.001,0,1.943-0.334,2.774-0.769   l-3.425-6.828l4.038,2.297c0.391,0.227,0.887,0.148,1.208-0.173l1.521-1.37L31,4.68v1.508C31,6.637,31.363,7,31.812,7h0.375   C32.637,7,33,6.637,33,6.188v-4V1.812C33,1.363,32.637,1,32.188,1z"/>
</g>
<g id="Superhero">
</g>
</svg>